HIERARCHY
ROOT newVegas:Hips
{
	OFFSET 0.000000 96.479958 0.000000
	CHANNELS 6 Xposition Yposition Zposition Xrotation Yrotation Zrotation
	JOINT newVegas:Pelvis
	{
		OFFSET 0.000000 0.000000 0.000000
		CHANNELS 3 Xrotation Yrotation Zrotation
		JOINT newVegas:LeftUpLeg
		{
			OFFSET 18.735201 -5.666702 -4.541200
			CHANNELS 3 Xrotation Yrotation Zrotation
			JOINT newVegas:LeftLeg
			{
				OFFSET -0.021200 -31.938179 0.493100
				CHANNELS 3 Xrotation Yrotation Zrotation
				JOINT newVegas:LeftFoot
				{
					OFFSET 0.021200 -31.938179 -4.336299
					CHANNELS 3 Xrotation Yrotation Zrotation
					JOINT newVegas:LeftToeBase
					{
						OFFSET 0.943001 -26.722000 15.023500
						CHANNELS 3 Xrotation Yrotation Zrotation
						End Site
						{
							OFFSET 0.000000 30.670183 0.000000
						}
					}
				}
				JOINT newVegas:Left_PantLeg
				{
					OFFSET 0.663870 -9.044666 -1.108900
					CHANNELS 3 Xrotation Yrotation Zrotation
					End Site
					{
						OFFSET 1.415995 20.635357 0.000000
					}
				}
			}
		}
		JOINT newVegas:RightUpLeg
		{
			OFFSET -18.735201 -5.666702 -4.541200
			CHANNELS 3 Xrotation Yrotation Zrotation
			JOINT newVegas:RightLeg
			{
				OFFSET 0.018946 -31.938133 0.493100
				CHANNELS 3 Xrotation Yrotation Zrotation
				JOINT newVegas:RightFoot
				{
					OFFSET -0.018946 -31.938126 -4.336299
					CHANNELS 3 Xrotation Yrotation Zrotation
					JOINT newVegas:RightToeBase
					{
						OFFSET -0.943001 -26.722004 15.023500
						CHANNELS 3 Xrotation Yrotation Zrotation
						End Site
						{
							OFFSET 0.000000 30.670187 0.000000
						}
					}
				}
				JOINT newVegas:Right_PantLeg
				{
					OFFSET -0.661674 -9.044716 -1.108900
					CHANNELS 3 Xrotation Yrotation Zrotation
					End Site
					{
						OFFSET -1.415958 20.635269 0.000000
					}
				}
			}
		}
	}
	JOINT newVegas:Spine
	{
		OFFSET 0.000000 10.199997 -0.299500
		CHANNELS 3 Xrotation Yrotation Zrotation
		JOINT newVegas:Spine1
		{
			OFFSET 0.000000 11.900002 -1.516600
			CHANNELS 3 Xrotation Yrotation Zrotation
			JOINT newVegas:Spine2
			{
				OFFSET 0.000000 13.600006 -2.842500
				CHANNELS 3 Xrotation Yrotation Zrotation
				JOINT newVegas:Neck
				{
					OFFSET 0.000000 9.624100 -2.890100
					CHANNELS 3 Xrotation Yrotation Zrotation
					JOINT newVegas:Head
					{
						OFFSET 0.000000 14.068802 -1.351900
						CHANNELS 3 Xrotation Yrotation Zrotation
						JOINT newVegas:Hair_Back
						{
							OFFSET 0.000000 3.231903 -17.524799
							CHANNELS 3 Xrotation Yrotation Zrotation
							End Site
							{
								OFFSET 0.000000 19.849884 0.000000
							}
						}
						JOINT newVegas:Hair_Front
						{
							OFFSET 0.000000 31.260406 4.573800
							CHANNELS 3 Xrotation Yrotation Zrotation
							JOINT newVegas:Hair_Front1
							{
								OFFSET 0.000000 2.284103 11.993300
								CHANNELS 3 Xrotation Yrotation Zrotation
								JOINT newVegas:Hair_Front2
								{
									OFFSET 0.000000 2.284103 11.993300
									CHANNELS 3 Xrotation Yrotation Zrotation
									End Site
									{
										OFFSET 0.000000 12.208862 0.000000
									}
								}
							}
						}
						JOINT newVegas:Jowel
						{
							OFFSET 0.000000 -7.458206 6.864100
							CHANNELS 3 Xrotation Yrotation Zrotation
							End Site
							{
								OFFSET 0.000000 19.849884 0.000000
							}
						}
					}
				}
				JOINT newVegas:LeftShoulder
				{
					OFFSET 15.263000 10.923401 -0.547700
					CHANNELS 3 Xrotation Yrotation Zrotation
					JOINT newVegas:LeftArm
					{
						OFFSET 25.438599 -2.830597 -13.032500
						CHANNELS 3 Xrotation Yrotation Zrotation
						JOINT newVegas:LeftForeArm
						{
							OFFSET 29.960503 0.000000 0.000000
							CHANNELS 3 Xrotation Yrotation Zrotation
							JOINT newVegas:LeftHand
							{
								OFFSET 27.849251 0.000000 0.000000
								CHANNELS 3 Xrotation Yrotation Zrotation
								JOINT newVegas:LeftHandThumb1
								{
									OFFSET 4.487587 -3.305161 6.305391
									CHANNELS 3 Xrotation Yrotation Zrotation
									JOINT newVegas:LeftHandThumb2
									{
										OFFSET 5.480453 -3.164139 3.164143
										CHANNELS 3 Xrotation Yrotation Zrotation
										JOINT newVegas:LeftHandThumb3
										{
											OFFSET 5.159721 -2.978973 2.978967
											CHANNELS 3 Xrotation Yrotation Zrotation
											End Site
											{
												OFFSET 2.494507 5.926697 1.738678
											}
										}
									}
								}
								JOINT newVegas:LeftHandIndex1
								{
									OFFSET 18.578728 -0.527832 5.208049
									CHANNELS 3 Xrotation Yrotation Zrotation
									JOINT newVegas:LeftHandIndex2
									{
										OFFSET 3.192009 0.000000 0.000000
										CHANNELS 3 Xrotation Yrotation Zrotation
										JOINT newVegas:LeftHandIndex3
										{
											OFFSET 3.835129 0.000000 0.000000
											CHANNELS 3 Xrotation Yrotation Zrotation
											End Site
											{
												OFFSET -0.034599 3.816971 0.371180
											}
										}
									}
								}
								JOINT newVegas:LeftHandMiddle1
								{
									OFFSET 18.476105 0.000000 0.000000
									CHANNELS 3 Xrotation Yrotation Zrotation
									JOINT newVegas:LeftHandMiddle2
									{
										OFFSET 3.324875 0.000000 0.000000
										CHANNELS 3 Xrotation Yrotation Zrotation
										JOINT newVegas:LeftHandMiddle3
										{
											OFFSET 4.596550 0.000000 0.000000
											CHANNELS 3 Xrotation Yrotation Zrotation
											End Site
											{
												OFFSET 0.057701 4.578827 0.399218
											}
										}
									}
								}
								JOINT newVegas:LeftHandRing1
								{
									OFFSET 17.732719 0.121887 -4.201567
									CHANNELS 3 Xrotation Yrotation Zrotation
									JOINT newVegas:LeftHandRing2
									{
										OFFSET 2.733170 0.000000 0.000000
										CHANNELS 3 Xrotation Yrotation Zrotation
										JOINT newVegas:LeftHandRing3
										{
											OFFSET 3.178268 0.000000 0.000000
											CHANNELS 3 Xrotation Yrotation Zrotation
											End Site
											{
												OFFSET 0.119102 3.170624 0.185394
											}
										}
									}
								}
								JOINT newVegas:LeftHandPinky1
								{
									OFFSET 15.989624 -0.606689 -7.535461
									CHANNELS 3 Xrotation Yrotation Zrotation
									JOINT newVegas:LeftHandPinky2
									{
										OFFSET 2.538986 0.000000 0.000000
										CHANNELS 3 Xrotation Yrotation Zrotation
										JOINT newVegas:LeftHandPinky3
										{
											OFFSET 2.593102 0.000000 0.000000
											CHANNELS 3 Xrotation Yrotation Zrotation
											End Site
											{
												OFFSET -0.150902 2.584198 0.152708
											}
										}
									}
								}
							}
							JOINT newVegas:Left_Sleeve
							{
								OFFSET 0.267448 -0.649796 0.577675
								CHANNELS 3 Xrotation Yrotation Zrotation
								End Site
								{
									OFFSET 0.000000 15.991241 0.000000
								}
							}
							JOINT newVegas:Left_CapeC
							{
								OFFSET 15.715958 -8.608795 -6.935905
								CHANNELS 3 Xrotation Yrotation Zrotation
								JOINT newVegas:Left_CapeC1
								{
									OFFSET 0.000000 -8.688499 0.000000
									CHANNELS 3 Xrotation Yrotation Zrotation
									End Site
									{
										OFFSET 0.000000 8.688499 0.000000
									}
								}
							}
						}
						JOINT newVegas:Left_CapeB
						{
							OFFSET 26.118385 -8.608795 -7.079235
							CHANNELS 3 Xrotation Yrotation Zrotation
							JOINT newVegas:Left_CapeB1
							{
								OFFSET 0.000000 -8.688499 0.000000
								CHANNELS 3 Xrotation Yrotation Zrotation
								End Site
								{
									OFFSET 0.000000 8.688499 0.000000
								}
							}
						}
						JOINT newVegas:Left_CapeA
						{
							OFFSET 5.115639 -8.608795 -10.395809
							CHANNELS 3 Xrotation Yrotation Zrotation
							JOINT newVegas:Left_CapeA1
							{
								OFFSET 0.000000 -8.688499 0.000000
								CHANNELS 3 Xrotation Yrotation Zrotation
								End Site
								{
									OFFSET 0.000000 8.688499 0.000000
								}
							}
						}
					}
				}
				JOINT newVegas:RightShoulder
				{
					OFFSET -15.263000 10.923401 -0.547700
					CHANNELS 3 Xrotation Yrotation Zrotation
					JOINT newVegas:RightArm
					{
						OFFSET -25.438599 -2.830597 -13.032500
						CHANNELS 3 Xrotation Yrotation Zrotation
						JOINT newVegas:RightForeArm
						{
							OFFSET -29.960503 0.000000 0.000000
							CHANNELS 3 Xrotation Yrotation Zrotation
							JOINT newVegas:RightHand
							{
								OFFSET -27.849251 0.000000 0.000000
								CHANNELS 3 Xrotation Yrotation Zrotation
								JOINT newVegas:RightHandThumb1
								{
									OFFSET -4.487587 -3.305161 6.305391
									CHANNELS 3 Xrotation Yrotation Zrotation
									JOINT newVegas:RightHandThumb2
									{
										OFFSET -5.480453 -3.164139 3.164143
										CHANNELS 3 Xrotation Yrotation Zrotation
										JOINT newVegas:RightHandThumb3
										{
											OFFSET -5.159721 -2.978973 2.978967
											CHANNELS 3 Xrotation Yrotation Zrotation
											End Site
											{
												OFFSET -2.494507 5.926697 1.738678
											}
										}
									}
								}
								JOINT newVegas:RightHandIndex1
								{
									OFFSET -18.578728 -0.527832 5.208049
									CHANNELS 3 Xrotation Yrotation Zrotation
									JOINT newVegas:RightHandIndex2
									{
										OFFSET -3.192009 0.000000 0.000000
										CHANNELS 3 Xrotation Yrotation Zrotation
										JOINT newVegas:RightHandIndex3
										{
											OFFSET -3.835129 0.000000 0.000000
											CHANNELS 3 Xrotation Yrotation Zrotation
											End Site
											{
												OFFSET 0.034599 3.816971 0.371180
											}
										}
									}
								}
								JOINT newVegas:RightHandMiddle1
								{
									OFFSET -18.476105 0.000000 0.000000
									CHANNELS 3 Xrotation Yrotation Zrotation
									JOINT newVegas:RightHandMiddle2
									{
										OFFSET -3.324875 0.000000 0.000000
										CHANNELS 3 Xrotation Yrotation Zrotation
										JOINT newVegas:RightHandMiddle3
										{
											OFFSET -4.596550 0.000000 0.000000
											CHANNELS 3 Xrotation Yrotation Zrotation
											End Site
											{
												OFFSET -0.057701 4.578827 0.399218
											}
										}
									}
								}
								JOINT newVegas:RightHandRing1
								{
									OFFSET -17.732719 0.121887 -4.201567
									CHANNELS 3 Xrotation Yrotation Zrotation
									JOINT newVegas:RightHandRing2
									{
										OFFSET -2.733170 0.000000 0.000000
										CHANNELS 3 Xrotation Yrotation Zrotation
										JOINT newVegas:RightHandRing3
										{
											OFFSET -3.178268 0.000000 0.000000
											CHANNELS 3 Xrotation Yrotation Zrotation
											End Site
											{
												OFFSET -0.119102 3.170624 0.185394
											}
										}
									}
								}
								JOINT newVegas:RightHandPinky1
								{
									OFFSET -15.989624 -0.606689 -7.535461
									CHANNELS 3 Xrotation Yrotation Zrotation
									JOINT newVegas:RightHandPinky2
									{
										OFFSET -2.538986 0.000000 0.000000
										CHANNELS 3 Xrotation Yrotation Zrotation
										JOINT newVegas:RightHandPinky3
										{
											OFFSET -2.593102 0.000000 0.000000
											CHANNELS 3 Xrotation Yrotation Zrotation
											End Site
											{
												OFFSET 0.150902 2.584198 0.152708
											}
										}
									}
								}
							}
							JOINT newVegas:Right_CapeC
							{
								OFFSET -15.715958 -8.608795 -6.935905
								CHANNELS 3 Xrotation Yrotation Zrotation
								JOINT newVegas:Right_CapeC1
								{
									OFFSET 0.000000 -8.688499 0.000000
									CHANNELS 3 Xrotation Yrotation Zrotation
									End Site
									{
										OFFSET 0.000000 8.688499 0.000000
									}
								}
							}
							JOINT newVegas:Right_Sleeve
							{
								OFFSET -0.267448 -0.649994 0.577675
								CHANNELS 3 Xrotation Yrotation Zrotation
								End Site
								{
									OFFSET 0.000000 15.991302 0.000000
								}
							}
						}
						JOINT newVegas:Right_CapeA
						{
							OFFSET -5.115540 -8.608795 -10.395824
							CHANNELS 3 Xrotation Yrotation Zrotation
							JOINT newVegas:Right_CapeA1
							{
								OFFSET 0.000000 -8.688499 0.000000
								CHANNELS 3 Xrotation Yrotation Zrotation
								End Site
								{
									OFFSET 0.000000 8.688499 0.000000
								}
							}
						}
						JOINT newVegas:Right_CapeB
						{
							OFFSET -26.118187 -8.608795 -7.079266
							CHANNELS 3 Xrotation Yrotation Zrotation
							JOINT newVegas:Right_CapeB1
							{
								OFFSET 0.000000 -8.688499 0.000000
								CHANNELS 3 Xrotation Yrotation Zrotation
								End Site
								{
									OFFSET 0.000000 8.688499 0.000000
								}
							}
						}
					}
				}
				JOINT newVegas:Left_Collar
				{
					OFFSET 18.625099 8.655502 8.828100
					CHANNELS 3 Xrotation Yrotation Zrotation
					JOINT newVegas:Left_Collar1
					{
						OFFSET 14.783401 10.540405 -1.259500
						CHANNELS 3 Xrotation Yrotation Zrotation
						End Site
						{
							OFFSET 0.000000 18.199875 0.000000
						}
					}
				}
				JOINT newVegas:Collar_Back
				{
					OFFSET 0.000000 15.630707 -20.132601
					CHANNELS 3 Xrotation Yrotation Zrotation
					End Site
					{
						OFFSET 0.000000 22.523010 0.000000
					}
				}
				JOINT newVegas:Left_Peck
				{
					OFFSET 17.239599 -5.132599 25.482599
					CHANNELS 3 Xrotation Yrotation Zrotation
					End Site
					{
						OFFSET 0.000000 22.523010 0.000000
					}
				}
				JOINT newVegas:Right_Peck
				{
					OFFSET -17.239599 -5.132202 25.482599
					CHANNELS 3 Xrotation Yrotation Zrotation
					End Site
					{
						OFFSET 0.000000 22.523010 0.000000
					}
				}
				JOINT newVegas:Right_Collar
				{
					OFFSET -18.625099 8.655792 8.828100
					CHANNELS 3 Xrotation Yrotation Zrotation
					JOINT newVegas:Right_Collar1
					{
						OFFSET -14.783401 10.539993 -1.259500
						CHANNELS 3 Xrotation Yrotation Zrotation
						End Site
						{
							OFFSET 0.000000 18.199631 0.000000
						}
					}
				}
			}
		}
		JOINT newVegas:Belly
		{
			OFFSET 0.000000 -6.540398 9.014299
			CHANNELS 3 Xrotation Yrotation Zrotation
			End Site
			{
				OFFSET 0.000000 11.566666 0.000000
			}
		}
	}
	JOINT newVegas:ElvisFacialAnim_Joint
	{
		OFFSET 1.000000 -95.330101 -8.825800
		CHANNELS 3 Xrotation Yrotation Zrotation
		End Site
		{
			OFFSET 0.000000 35.315800 0.000000
		}
	}
}
MOTION
Frames: 4
Frame Time: 0.033333
0.030629 94.813721 4.985242 -3.612870 0.883916 0.571132 0.000001 -0.000000 0.000000 -4.238543 4.797931 0.164584 18.812245 -0.966888 0.454028 -10.944605 0.002031 -0.283109 0.000000 -0.000000 -0.000000 -0.000000 0.000000 0.000000 -4.341884 -5.182595 -1.159612 20.564040 -3.600053 -0.802404 -12.674143 0.022558 1.493525 0.000000 0.000000 -0.000000 0.000001 0.000000 -0.000001 0.821811 0.020309 0.412566 1.667364 0.062324 0.794186 1.667364 0.062324 0.794185 0.220566 0.075817 -0.659955 0.220533 0.075818 -0.659958 -0.000000 -0.000000 -0.000000 0.220650 0.075813 -0.659956 0.220583 0.075819 -0.659956 -0.000000 0.000000 0.000000 -0.000000 -0.000000 0.000000 -0.199301 -13.196320 -18.911885 -1.116128 3.502489 -64.072802 0.000001 -14.545668 0.000016 21.830688 -0.124031 -1.096334 5.293877 12.300945 10.445821 8.725971 25.025274 -3.067672 -0.000000 -0.000006 -0.000003 -2.548045 -3.721624 -26.168410 0.042366 0.764136 -6.345273 -0.000003 0.000000 0.000001 -5.283163 -6.920024 -31.759693 0.412181 2.350772 -19.887272 -0.000005 -0.000001 -0.000000 -0.878797 0.686896 -33.129136 0.553583 2.709634 -23.089552 0.000000 -0.000001 0.000001 8.534157 11.135601 -45.809146 0.949968 -0.586302 -30.662891 0.000003 0.000002 0.000001 0.000001 0.000001 -0.000001 0.000001 0.000001 -0.000001 0.000001 0.000001 -0.000001 -0.000000 0.000000 -0.000000 0.000000 0.000000 0.000000 -0.000000 0.000000 -0.000000 0.000000 0.000000 -0.000000 0.273992 19.604979 11.845877 6.426476 -11.479777 72.124981 -0.000003 15.046946 0.000015 22.993883 4.294462 -11.937715 -12.129930 -15.319648 -2.929217 9.906688 -22.013681 0.853712 0.000003 0.000001 -0.000002 0.891086 -3.644908 41.441859 0.298546 -2.019373 16.817428 -0.000004 0.000001 0.000000 0.884183 -3.556670 38.898764 0.196428 -1.644235 13.623581 0.000001 -0.000000 0.000001 -0.734734 -0.399196 28.514491 0.607310 -2.846668 24.080763 0.000002 0.000006 0.000001 -1.918111 2.677164 24.949199 0.654827 -2.950580 25.020588 -0.000002 0.000001 0.000001 -0.000001 -0.000000 -0.000000 -0.000001 -0.000001 -0.000000 -0.000001 0.000000 0.000000 -0.000001 0.000000 -0.000001 -0.000001 0.000000 -0.000000 -0.000001 0.000000 -0.000001 -0.000001 -0.000000 -0.000000 0.000000 0.000000 0.000000 0.000000 0.000000 0.000000 0.000000 0.000000 0.000000 0.000000 0.000000 0.000000 0.000000 0.000000 0.000000 0.000000 0.000000 0.000000 0.000000 0.000000 0.000000 -0.000000 -0.000000 -0.000000 0.000001 -0.000000 0.000000 
0.067143 94.818230 4.990009 -3.640885 0.905746 0.555013 -0.000000 -0.000000 0.000000 -4.218793 4.767662 0.147688 18.835758 -0.946550 0.454354 -10.960842 -0.000138 -0.255861 0.000000 -0.000000 -0.000000 0.000000 0.000000 -0.000000 -4.265717 -5.205120 -1.171451 20.494698 -3.604321 -0.802010 -12.649683 0.018572 1.523662 0.000000 0.000000 -0.000000 0.000000 0.000000 -0.000000 0.821821 0.020471 0.411316 1.677114 0.062324 0.794185 1.677113 0.062323 0.794185 0.226652 0.051435 -0.670087 0.226659 0.051435 -0.670088 0.000000 0.000000 -0.000000 0.226651 0.051436 -0.670088 0.226718 0.051435 -0.670089 0.000000 0.000000 0.000000 0.000000 0.000000 0.000000 -0.215811 -13.218608 -18.951369 -1.120889 3.501464 -64.048023 -0.000003 -14.537050 -0.000029 21.865748 -0.139001 -1.114016 5.280473 12.266009 10.447325 8.725438 25.023040 -3.067664 0.000004 -0.000000 -0.000003 -2.552630 -3.771062 -26.038670 0.041439 0.755906 -6.276643 -0.000001 -0.000001 -0.000000 -5.293774 -6.901164 -31.847755 0.412179 2.350769 -19.887283 -0.000006 -0.000001 0.000003 -0.878486 0.690521 -33.155722 0.553596 2.709609 -23.089572 0.000003 -0.000001 0.000001 8.540299 11.134690 -45.840924 0.952066 -0.582770 -30.697148 -0.000000 -0.000007 -0.000001 0.000001 -0.000001 -0.000000 0.000001 -0.000001 -0.000000 0.000001 -0.000001 -0.000001 0.000000 0.000000 0.000001 0.000000 0.000000 0.000001 0.000000 0.000000 0.000001 0.000000 -0.000000 0.000001 0.282599 19.592241 11.827662 6.408086 -11.483204 72.146803 0.000008 15.025480 -0.000053 23.040199 4.302651 -11.933264 -12.129374 -15.320280 -2.927581 9.910096 -22.041944 0.852544 0.000001 -0.000004 -0.000001 0.885541 -3.638426 41.436845 0.298552 -2.019412 16.817806 -0.000001 0.000002 -0.000000 0.888779 -3.564492 38.972667 0.195973 -1.642345 13.607768 0.000001 0.000000 -0.000000 -0.737399 -0.403144 28.587668 0.606564 -2.844997 24.065726 0.000003 0.000003 -0.000002 -1.919426 2.672756 24.977590 0.655844 -2.952799 25.040612 -0.000002 0.000002 -0.000001 0.000000 -0.000001 0.000000 0.000000 -0.000001 0.000000 0.000000 -0.000000 0.000001 0.000001 0.000002 -0.000000 0.000001 0.000002 -0.000000 0.000001 0.000002 -0.000000 0.000001 0.000002 -0.000000 0.000000 -0.000000 0.000000 0.000000 -0.000000 0.000000 0.000000 -0.000000 0.000000 0.000000 -0.000000 0.000000 0.000000 -0.000000 0.000000 0.000000 -0.000000 0.000000 0.000000 -0.000000 0.000000 0.000000 -0.000000 -0.000000 -0.000000 -0.000000 0.000000 
0.098372 94.820732 4.998279 -3.665906 0.931818 0.527758 -0.000000 0.000000 0.000000 -4.222419 4.757908 0.153754 18.899794 -0.958201 0.455119 -10.998285 -0.002152 -0.229526 -0.000000 -0.000000 -0.000000 -0.000002 -0.000000 0.000001 -4.177551 -5.189112 -1.153189 20.407190 -3.654975 -0.810701 -12.620250 0.012620 1.560642 0.000000 -0.000001 0.000000 -0.000000 -0.000000 -0.000000 0.826782 0.020731 0.409381 1.694576 0.043664 0.794185 1.694575 0.043664 0.794185 0.234287 0.031781 -0.675818 0.234293 0.031781 -0.675819 0.000000 0.000000 -0.000000 0.234292 0.031781 -0.675818 0.234285 0.031780 -0.675818 0.000000 -0.000000 0.000000 0.000000 0.000000 -0.000000 -0.219125 -13.177464 -18.941709 -1.135494 3.492452 -64.063459 -0.000007 -14.553806 -0.000033 21.846657 -0.160318 -1.112613 5.272188 12.259209 10.449097 8.719187 24.995253 -3.067769 -0.000003 0.000001 -0.000003 -2.547212 -3.723337 -26.156877 0.035986 0.704495 -5.848268 0.000002 -0.000001 -0.000002 -5.281985 -6.922094 -31.749984 0.412177 2.350772 -19.887294 -0.000004 -0.000000 -0.000001 -0.878933 0.688740 -33.146713 0.553672 2.709804 -23.091218 0.000001 -0.000001 -0.000001 8.537509 11.137491 -45.815345 0.950881 -0.584746 -30.678030 -0.000000 -0.000005 -0.000001 -0.000000 0.000001 -0.000000 -0.000000 0.000001 -0.000000 -0.000000 0.000001 -0.000000 0.000000 0.000001 -0.000000 0.000001 0.000001 -0.000000 0.000000 0.000001 -0.000000 0.000001 0.000001 -0.000000 0.282431 19.581632 11.834443 6.377841 -11.478478 72.153804 -0.000001 15.031211 0.000012 23.068745 4.315193 -11.963542 -12.128605 -15.321122 -2.925802 9.910356 -22.044038 0.852492 -0.000002 -0.000000 -0.000002 0.876046 -3.629479 41.489776 0.298867 -2.020438 16.826601 -0.000004 0.000001 -0.000003 0.895966 -3.576721 39.088210 0.195980 -1.642337 13.607663 -0.000001 0.000001 0.000001 -0.744684 -0.403651 28.703074 0.606300 -2.844449 24.060682 -0.000000 0.000002 0.000001 -1.916513 2.647749 25.049058 0.659320 -2.960211 25.107943 -0.000004 0.000002 -0.000000 0.000001 -0.000000 -0.000000 0.000001 0.000000 -0.000001 0.000001 -0.000000 0.000000 0.000001 0.000000 0.000000 0.000001 0.000000 0.000000 0.000001 0.000000 0.000000 0.000001 -0.000000 0.000000 -0.000000 0.000000 0.000000 -0.000000 0.000000 0.000000 -0.000000 0.000000 0.000000 -0.000000 0.000000 0.000000 -0.000000 0.000000 0.000000 -0.000000 0.000000 0.000000 -0.000000 0.000000 0.000000 0.000000 0.000000 0.000000 -0.000000 0.000000 0.000000 
0.127203 94.821472 5.008469 -3.692421 0.955226 0.496845 0.000000 -0.000000 -0.000000 -4.232550 4.743306 0.166040 18.984268 -0.964639 0.455933 -11.048531 -0.003846 -0.206660 -0.000000 0.000000 0.000000 -0.000001 -0.000000 0.000000 -4.089253 -5.152743 -1.130669 20.325048 -3.715625 -0.810930 -12.593775 0.006779 1.593545 0.000000 -0.000000 0.000000 0.000001 0.000001 -0.000000 0.837758 0.021023 0.407276 1.716642 0.031657 0.794186 1.716641 0.031658 0.794186 0.246062 0.016382 -0.675813 0.246062 0.016383 -0.675812 0.000000 -0.000000 0.000000 0.246062 0.016383 -0.675813 0.246062 0.016383 -0.675812 -0.000000 -0.000000 -0.000000 0.000000 -0.000000 0.000000 -0.210317 -13.097044 -18.896225 -1.156405 3.471794 -64.111017 0.000003 -14.588475 -0.000000 21.844256 -0.107011 -1.198059 5.269910 12.259305 10.449678 8.715126 24.978461 -3.067398 -0.000001 -0.000000 -0.000003 -2.547687 -3.831921 -25.807048 0.035986 0.704470 -5.847850 0.000000 0.000000 0.000000 -5.283225 -6.919932 -31.760106 0.412178 2.350779 -19.887313 -0.000006 -0.000001 -0.000002 -0.878252 0.680075 -33.063631 0.554972 2.712865 -23.118742 0.000003 -0.000002 -0.000001 8.553684 11.147191 -45.842512 0.950890 -0.584753 -30.678034 0.000003 -0.000003 -0.000002 0.000002 0.000000 0.000001 0.000002 0.000000 0.000001 0.000002 0.000000 0.000000 0.000000 0.000000 0.000002 0.000001 0.000000 0.000001 0.000000 0.000000 0.000002 0.000001 -0.000001 0.000002 0.276373 19.554731 11.856392 6.354267 -11.478083 72.151448 0.000002 15.067411 0.000006 23.058304 4.314579 -11.984468 -12.127628 -15.322148 -2.923929 9.923473 -22.048052 0.851047 -0.000003 0.000000 -0.000002 0.867367 -3.622685 41.576816 0.299338 -2.022009 16.840251 0.000001 0.000000 0.000001 0.904580 -3.591285 39.225954 0.196250 -1.643483 13.617318 -0.000003 0.000002 0.000001 -0.753585 -0.404311 28.843342 0.606993 -2.845969 24.074571 -0.000001 -0.000001 -0.000001 -1.914617 2.616468 25.154098 0.664505 -2.971196 25.207899 -0.000002 0.000003 0.000000 0.000002 0.000000 0.000000 0.000002 -0.000001 0.000001 0.000002 0.000000 0.000000 -0.000001 -0.000001 -0.000000 -0.000000 -0.000001 -0.000000 -0.000001 -0.000001 -0.000000 -0.000000 -0.000001 -0.000000 0.000000 -0.000000 -0.000000 0.000000 -0.000000 -0.000000 0.000000 -0.000000 -0.000000 0.000000 -0.000000 -0.000000 0.000000 -0.000000 -0.000000 0.000000 -0.000000 -0.000000 0.000000 -0.000000 -0.000000 0.000000 0.000000 0.000000 0.000000 -0.000000 -0.000000 
